<mxfile host="app.diagrams.net" agent="Mozilla/5.0 (Macintosh; Intel Mac OS X 10_15_7) AppleWebKit/537.36 (KHTML, like Gecko) Chrome/133.0.0.0 Safari/537.36" version="26.0.16">
  <diagram name="Page-1" id="KUiOJ41T-uP_cARUOd_k">
    <mxGraphModel dx="1242" dy="819" grid="0" gridSize="10" guides="1" tooltips="1" connect="1" arrows="1" fold="1" page="1" pageScale="1" pageWidth="850" pageHeight="1100" math="0" shadow="0">
      <root>
        <mxCell id="0" />
        <mxCell id="1" parent="0" />
        <mxCell id="xYe0PxicJ7W58A6IzqQn-22" value="" style="rounded=0;whiteSpace=wrap;html=1;" vertex="1" parent="1">
          <mxGeometry x="12" y="178" width="826" height="464" as="geometry" />
        </mxCell>
        <mxCell id="xYe0PxicJ7W58A6IzqQn-4" value="MicrosoftÂ &#xa;Exchange Online" style="shape=image;verticalLabelPosition=bottom;labelBackgroundColor=default;verticalAlign=top;aspect=fixed;imageAspect=0;image=https://download.logo.wine/logo/Microsoft_Exchange_Server/Microsoft_Exchange_Server-Logo.wine.png;" vertex="1" parent="1">
          <mxGeometry x="9" y="251" width="150" height="100" as="geometry" />
        </mxCell>
        <mxCell id="xYe0PxicJ7W58A6IzqQn-5" value="" style="shape=flexArrow;endArrow=classic;html=1;rounded=0;" edge="1" parent="1">
          <mxGeometry width="50" height="50" relative="1" as="geometry">
            <mxPoint x="139" y="310.5" as="sourcePoint" />
            <mxPoint x="209" y="310.5" as="targetPoint" />
          </mxGeometry>
        </mxCell>
        <mxCell id="xYe0PxicJ7W58A6IzqQn-7" value="" style="rounded=0;whiteSpace=wrap;html=1;fillColor=#dae8fc;strokeColor=#6c8ebf;" vertex="1" parent="1">
          <mxGeometry x="219" y="221" width="90" height="210" as="geometry" />
        </mxCell>
        <mxCell id="xYe0PxicJ7W58A6IzqQn-8" value="Exchange Online Source Connector" style="rounded=0;whiteSpace=wrap;html=1;fillColor=#ffe6cc;strokeColor=#d79b00;fontColor=light-dark(#37b36d, #ededed);" vertex="1" parent="1">
          <mxGeometry x="229" y="331" width="70" height="90" as="geometry" />
        </mxCell>
        <mxCell id="xYe0PxicJ7W58A6IzqQn-9" value="Kafka&lt;div&gt;Connect&lt;/div&gt;" style="text;html=1;align=center;verticalAlign=middle;resizable=0;points=[];autosize=1;strokeColor=none;fillColor=none;" vertex="1" parent="1">
          <mxGeometry x="229" y="261" width="70" height="40" as="geometry" />
        </mxCell>
        <mxCell id="xYe0PxicJ7W58A6IzqQn-10" value="Kafka" style="shape=image;verticalLabelPosition=bottom;labelBackgroundColor=default;verticalAlign=top;aspect=fixed;imageAspect=0;image=https://upload.wikimedia.org/wikipedia/commons/0/01/Apache_Kafka_logo.svg;" vertex="1" parent="1">
          <mxGeometry x="399" y="246" width="80.08" height="130" as="geometry" />
        </mxCell>
        <mxCell id="xYe0PxicJ7W58A6IzqQn-11" value="" style="shape=flexArrow;endArrow=classic;html=1;rounded=0;" edge="1" parent="1">
          <mxGeometry width="50" height="50" relative="1" as="geometry">
            <mxPoint x="319" y="310.5" as="sourcePoint" />
            <mxPoint x="389" y="310.5" as="targetPoint" />
          </mxGeometry>
        </mxCell>
        <mxCell id="xYe0PxicJ7W58A6IzqQn-12" value="" style="shape=flexArrow;endArrow=classic;html=1;rounded=0;" edge="1" parent="1">
          <mxGeometry width="50" height="50" relative="1" as="geometry">
            <mxPoint x="489" y="310.5" as="sourcePoint" />
            <mxPoint x="559" y="310.5" as="targetPoint" />
          </mxGeometry>
        </mxCell>
        <mxCell id="xYe0PxicJ7W58A6IzqQn-17" value="" style="rounded=0;whiteSpace=wrap;html=1;fillColor=#dae8fc;strokeColor=#6c8ebf;" vertex="1" parent="1">
          <mxGeometry x="569" y="221" width="90" height="210" as="geometry" />
        </mxCell>
        <mxCell id="xYe0PxicJ7W58A6IzqQn-18" value="Any&lt;div&gt;Sink&lt;/div&gt;&lt;div&gt;Connector&lt;/div&gt;" style="rounded=0;whiteSpace=wrap;html=1;fillColor=#ffe6cc;strokeColor=#d79b00;fontColor=light-dark(#330000,#EDEDED);" vertex="1" parent="1">
          <mxGeometry x="579" y="331" width="70" height="90" as="geometry" />
        </mxCell>
        <mxCell id="xYe0PxicJ7W58A6IzqQn-19" value="Kafka&lt;div&gt;Connect&lt;/div&gt;" style="text;html=1;align=center;verticalAlign=middle;resizable=0;points=[];autosize=1;strokeColor=none;fillColor=none;" vertex="1" parent="1">
          <mxGeometry x="579" y="261" width="70" height="40" as="geometry" />
        </mxCell>
        <mxCell id="xYe0PxicJ7W58A6IzqQn-20" value="Datastore" style="shape=datastore;whiteSpace=wrap;html=1;" vertex="1" parent="1">
          <mxGeometry x="749" y="281" width="60" height="60" as="geometry" />
        </mxCell>
        <mxCell id="xYe0PxicJ7W58A6IzqQn-21" value="" style="shape=flexArrow;endArrow=classic;html=1;rounded=0;" edge="1" parent="1">
          <mxGeometry width="50" height="50" relative="1" as="geometry">
            <mxPoint x="669" y="310.5" as="sourcePoint" />
            <mxPoint x="739" y="310.5" as="targetPoint" />
          </mxGeometry>
        </mxCell>
        <mxCell id="xYe0PxicJ7W58A6IzqQn-23" value="" style="outlineConnect=0;dashed=0;verticalLabelPosition=bottom;verticalAlign=top;align=center;html=1;shape=mxgraph.aws3.email;fillColor=#D9A741;gradientColor=none;" vertex="1" parent="1">
          <mxGeometry x="149" y="281" width="28" height="18.5" as="geometry" />
        </mxCell>
        <mxCell id="xYe0PxicJ7W58A6IzqQn-24" value="S3" style="sketch=0;outlineConnect=0;fontColor=#232F3E;gradientColor=none;fillColor=light-dark(#330000,#EDEDED);strokeColor=none;dashed=0;verticalLabelPosition=bottom;verticalAlign=top;align=center;html=1;fontSize=12;fontStyle=0;aspect=fixed;pointerEvents=1;shape=mxgraph.aws4.bucket;" vertex="1" parent="1">
          <mxGeometry x="229" y="521" width="75" height="78" as="geometry" />
        </mxCell>
        <mxCell id="xYe0PxicJ7W58A6IzqQn-30" value="" style="shape=flexArrow;endArrow=classic;html=1;rounded=0;dashed=1;dashPattern=1 1;" edge="1" parent="1">
          <mxGeometry width="50" height="50" relative="1" as="geometry">
            <mxPoint x="264" y="443" as="sourcePoint" />
            <mxPoint x="264" y="516" as="targetPoint" />
          </mxGeometry>
        </mxCell>
        <mxCell id="xYe0PxicJ7W58A6IzqQn-31" value="optional" style="edgeLabel;html=1;align=center;verticalAlign=middle;resizable=0;points=[];" vertex="1" connectable="0" parent="xYe0PxicJ7W58A6IzqQn-30">
          <mxGeometry x="-0.0833" relative="1" as="geometry">
            <mxPoint as="offset" />
          </mxGeometry>
        </mxCell>
      </root>
    </mxGraphModel>
  </diagram>
</mxfile>
